<?xml version="1.0" encoding="utf-8"?>
<!-- Generator: Adobe Illustrator 17.0.2, SVG Export Plug-In . SVG Version: 6.00 Build 0)  -->
<!DOCTYPE svg PUBLIC "-//W3C//DTD SVG 1.1//EN" "http://www.w3.org/Graphics/SVG/1.1/DTD/svg11.dtd">
<svg version="1.1" id="svg3833" xmlns:svg="http://www.w3.org/2000/svg"
	 xmlns="http://www.w3.org/2000/svg" xmlns:xlink="http://www.w3.org/1999/xlink" x="0px" y="0px" width="300px" height="89px"
	 viewBox="0 0 300 89" enable-background="new 0 0 300 89" xml:space="preserve">
<g>
	<path fill="#E42A22" d="M139.473,52.429c-3.802,5.785-7.423,11.307-11.06,16.819c-0.82,1.243-1.598,2.533-2.565,3.656
		c-2.066,2.4-4.754,2.837-7.481,1.524c-2.785-1.341-2.768-4.034-2.223-6.597c0.431-2.026,1.578-3.789,2.752-5.497
		c3.828-5.575,7.561-11.217,11.518-16.698c1.268-1.756,1.392-2.95,0.131-4.783c-3.44-5.002-6.655-10.161-9.912-15.287
		c-0.795-1.251-1.558-2.561-2.077-3.942c-0.97-2.583-1.429-5.184,1.451-7c2.537-1.599,6.085-0.997,7.875,1.686
		c4.001,5.997,7.8,12.129,11.896,18.543c3.849-5.866,7.595-11.548,11.309-17.251c1.434-2.202,2.994-3.988,6.025-3.737
		c3.46,0.286,5.383,2.704,4.591,6.069c-0.509,2.163-1.644,4.016-2.85,5.832c-3.172,4.774-6.252,9.615-9.587,14.273
		c-1.599,2.234-1.852,3.883-0.133,6.302c3.912,5.507,7.445,11.285,11.102,16.972c0.74,1.151,1.46,2.341,1.991,3.597
		c1.372,3.245,0.573,6.153-1.94,7.499c-2.682,1.437-6.026,0.713-7.867-2.033c-3.7-5.519-7.231-11.15-10.835-16.733
		C140.981,54.703,140.358,53.773,139.473,52.429z"/>
	<path fill="#EEEEEE" d="M99.16,69.203c-5.094,3.855-10.603,6.337-17.102,6.021c-8.191-0.398-13.553-5.883-13.191-13.572
		c0.255-5.423,3.707-9.552,9.626-11.05c5.311-1.345,10.731-2.267,16.025-3.67c1.256-0.333,3.714,0.283,3.615-2.23
		c-0.096-2.428-0.569-4.773-3.224-5.96c-4.887-2.185-11.327-0.524-14.462,3.823c-0.67,0.929-1.214,1.984-2.022,2.771
		c-1.642,1.6-3.572,1.328-5.406,0.354c-1.948-1.036-2.685-2.791-2.294-4.916c0.669-3.638,2.84-6.321,6.048-7.91
		c8.243-4.084,16.842-4.172,25.323-1.054c6.667,2.451,7.132,8.669,7.475,14.574c0.233,4.005,0.113,8.037,0.022,12.054
		c-0.068,3.008,0.227,5.928,1.186,8.792c0.984,2.939,1.122,5.742-2.175,7.384c-3.259,1.624-5.437-0.18-7.334-2.584
		C100.566,71.136,99.906,70.205,99.16,69.203z M98.198,55.947c-0.702-0.587,1.621-3.093-1.472-2.396
		c-3.881,0.875-7.777,1.702-11.614,2.741c-3.426,0.928-5.285,3.351-4.977,6.041c0.343,2.998,2.987,5.083,6.618,5.217
		C93.715,67.809,97.96,63.556,98.198,55.947z"/>
	<path fill="#EEEEEE" d="M236.91,55.378c-3.557,0-7.122,0.14-10.668-0.053c-2.068-0.112-2.232,0.791-2.05,2.406
		c0.897,7.963,9.449,12.172,16.604,8.136c2.214-1.249,4.059-2.977,5.887-4.708c1.823-1.726,3.935-2.177,5.922-0.71
		c2.138,1.577,1.695,3.884,0.582,5.89c-3.493,6.298-9.533,8.366-16.112,8.802c-8.813,0.584-16.971-1.445-21.497-9.85
		c-4.774-8.865-4.614-18.169,0.789-26.77c4.929-7.846,12.971-9.51,21.444-8.429c8.287,1.057,13.968,5.798,16.306,14.115
		c0.64,2.276,0.611,4.592,0.29,6.818c-0.486,3.372-3.262,4.191-6.138,4.303c-3.781,0.148-7.572,0.036-11.358,0.036
		C236.91,55.369,236.91,55.374,236.91,55.378z M233.983,48.94c2.399,0,4.806-0.13,7.193,0.036c2.435,0.17,2.609-0.912,2.114-2.869
		c-1.391-5.503-4.542-8.115-9.844-8.002c-4.571,0.097-8.09,3.466-9.13,8.609c-0.324,1.602-0.03,2.335,1.788,2.255
		C228.725,48.854,231.356,48.939,233.983,48.94z"/>
	<path fill="#EEEEEE" d="M186.207,75.229c-4.772,0.01-9.386-0.757-13.401-3.485c-3.028-2.057-5.28-4.69-5.181-8.748
		c0.049-2.003,0.949-3.424,2.628-4.028c1.844-0.663,3.886-0.779,5.343,1.075c0.634,0.807,1.165,1.696,1.754,2.539
		c3.03,4.334,7.903,6.077,12.962,4.532c2.016-0.616,3.946-1.612,4.189-3.997c0.258-2.539-1.332-4.123-3.531-4.893
		c-3.114-1.091-6.314-1.939-9.485-2.865c-2.635-0.769-5.257-1.578-7.629-2.999c-7.454-4.463-7.788-14.056-0.677-19.048
		c6.758-4.745,20.19-4.34,26.626,0.791c1.18,0.941,2.219,2.007,2.892,3.361c1.106,2.222,1.391,4.489-0.723,6.244
		c-2.233,1.853-4.687,1.755-6.899-0.11c-1.038-0.875-1.825-2.045-2.739-3.07c-2.806-3.146-7.724-4.121-11.29-2.154
		c-1.314,0.725-2.455,1.643-2.407,3.451c0.043,1.638,1.03,2.475,2.28,3.147c2.857,1.535,6.048,2.017,9.132,2.828
		c3.207,0.843,6.414,1.695,9.309,3.363c8.165,4.703,8.326,15.732,0.328,20.833C196.32,74.144,191.833,75.216,186.207,75.229z"/>
	<path fill="#EEEEEE" d="M280.806,75.237c-5.778,0.005-10.378-0.818-14.373-3.578c-3.02-2.086-5.231-4.757-5.053-8.812
		c0.088-1.997,1.039-3.344,2.761-3.917c1.752-0.584,3.68-0.722,5.064,0.973c0.866,1.06,1.56,2.259,2.392,3.349
		c2.944,3.858,8.932,5.54,13.247,3.612c1.664-0.743,3.345-1.714,3.433-3.892c0.09-2.225-1.182-3.637-3.065-4.545
		c-3.212-1.548-6.766-2.005-10.126-3.086c-2.609-0.84-5.242-1.611-7.605-3.062c-7.412-4.55-7.625-14.088-0.421-19.034
		c6.762-4.643,19.893-4.275,26.339,0.737c1.28,0.995,2.392,2.132,3.104,3.616c1.091,2.272,1.255,4.497-0.894,6.202
		c-2.146,1.703-4.512,1.653-6.627-0.087c-1.135-0.933-1.997-2.195-2.997-3.295c-2.722-2.995-7.457-3.95-11.013-2.129
		c-1.327,0.68-2.53,1.538-2.58,3.338c-0.05,1.801,1.028,2.693,2.408,3.409c2.875,1.492,6.06,1.979,9.144,2.791
		c3.205,0.844,6.416,1.71,9.298,3.398c7.965,4.664,8.15,15.612,0.364,20.672C289.406,74.626,284.654,75.133,280.806,75.237z"/>
	<path fill="#EEEEEE" d="M8.895,55.392c0-4.479-0.107-8.962,0.046-13.436c0.075-2.199-0.479-3.3-2.839-2.905
		c-0.335,0.056-0.689,0.019-1.032-0.002c-2.629-0.158-4.454-1.244-4.399-4.163c0.052-2.768,1.924-4.042,4.324-3.777
		c3.624,0.4,4.017-1.228,3.972-4.3c-0.136-9.28,3.543-12.901,12.818-13.005c2.732-0.03,5.492-0.254,8.151,0.796
		c2.157,0.852,3.623,2.198,3.156,4.631c-0.46,2.397-2.157,3.342-4.587,3.074c-1.252-0.138-2.529-0.05-3.782-0.179
		c-2.535-0.261-3.792,0.955-4.358,3.332c-1.014,4.259-0.368,5.21,3.912,5.581c2.522,0.219,4.831,0.72,4.86,4.061
		c0.029,3.43-2.358,4.164-4.846,3.863c-3.982-0.482-4.336,1.355-4.246,4.649c0.226,8.263,0.052,16.537,0.09,24.806
		c0.009,2.036-0.365,3.928-1.888,5.322c-1.632,1.493-3.58,1.916-5.742,1.117c-2.343-0.865-3.48-2.646-3.53-4.996
		c-0.104-4.821-0.031-9.646-0.031-14.469C8.926,55.392,8.91,55.392,8.895,55.392z"/>
	<path fill="#EEEEEE" d="M45.834,35.729c5.127-6.26,10.922-7.45,16.784-3.577c2.462,1.626,3.329,3.956,2.127,6.522
		c-1.135,2.423-3.289,3.33-6.038,2.255c-1.706-0.667-3.513-0.905-5.378-0.896c-2.475,0.012-4.083,1.126-5.127,3.305
		c-1.206,2.515-1.793,5.169-1.879,7.93c-0.175,5.608-0.313,11.217-0.429,16.826c-0.098,4.721-1.93,7.104-5.554,7.121
		c-3.628,0.018-5.661-2.471-5.67-7.031c-0.019-10.435-0.046-20.87,0.003-31.304c0.022-4.706,2.376-7.18,6.165-6.876
		C44.348,30.285,44.963,33.081,45.834,35.729z"/>
</g>
</svg>
